<?xml version="1.0" standalone="no"?>
<!DOCTYPE svg PUBLIC "-//W3C//DTD SVG 20010904//EN"
 "http://www.w3.org/TR/2001/REC-SVG-20010904/DTD/svg10.dtd">
<svg version="1.0" xmlns="http://www.w3.org/2000/svg"
 width="1188.000000pt" height="1280.000000pt" viewBox="0 0 1188.000000 1280.000000"
 preserveAspectRatio="xMidYMid meet">
<metadata>
Created by potrace 1.15, written by Peter Selinger 2001-2017
</metadata>
<g transform="translate(0.000000,1280.000000) scale(0.100000,-0.100000)"
fill="#000000" stroke="none">
<path d="M4120 12795 c-8 -2 -49 -9 -90 -15 -83 -14 -275 -77 -354 -117 -350
-176 -577 -531 -611 -953 -19 -243 66 -534 209 -713 l54 -68 6 -517 c3 -284 8
-881 11 -1327 9 -1324 24 -2926 31 -3285 l6 -335 192 2 c105 1 454 7 776 13
1641 31 2689 29 3083 -4 97 -9 188 -18 200 -21 28 -7 -37 123 614 -1230 985
-2043 1402 -2897 1447 -2957 11 -15 25 -12 167 41 230 86 429 169 894 371 696
303 1053 450 1091 450 22 0 29 46 28 185 -3 270 -51 496 -133 624 -57 88 -117
110 -231 87 -70 -15 -135 -42 -526 -215 -276 -122 -545 -208 -712 -227 l-58
-6 -133 273 c-231 472 -430 886 -851 1769 -224 470 -507 1063 -630 1318 l-223
462 -1954 0 -1953 0 -10 24 c-38 100 -59 365 -41 511 12 103 43 229 71 293
l19 42 1440 0 1441 0 0 510 0 510 -37 2 c-21 1 -596 2 -1278 3 -984 1 -1279 5
-1427 16 -103 8 -189 17 -192 20 -21 21 -33 1083 -20 1769 l6 325 77 75 c47
47 158 133 291 225 331 230 464 373 525 569 30 92 51 343 40 466 -47 514 -495
960 -1035 1030 -70 9 -186 11 -220 5z"/>
<path d="M2283 8130 c-627 -344 -1159 -826 -1552 -1405 -389 -574 -629 -1216
-690 -1850 -6 -60 -16 -171 -23 -245 -18 -193 -15 -601 6 -780 126 -1064 639
-2016 1471 -2731 691 -594 1537 -936 2692 -1088 619 -82 1339 18 1993 276 450
178 873 430 1270 755 144 118 451 421 560 553 41 50 112 126 156 170 126 124
174 238 175 416 2 289 -163 654 -411 913 l-96 99 -59 -94 c-444 -708 -1005
-1271 -1625 -1632 -350 -203 -780 -358 -1190 -428 -159 -27 -558 -38 -737 -19
-664 67 -1305 344 -1838 792 -110 92 -330 314 -420 423 -300 364 -535 823
-650 1271 -206 797 -96 1673 299 2377 190 340 460 654 726 847 210 151 254
216 249 368 -5 149 -4 239 5 497 9 278 -1 382 -50 478 -22 45 -83 127 -94 127
-3 0 -78 -41 -167 -90z"/>
</g>
</svg>
